<?xml version="1.0" standalone="no"?>
<!DOCTYPE svg PUBLIC "-//W3C//DTD SVG 20010904//EN"
 "http://www.w3.org/TR/2001/REC-SVG-20010904/DTD/svg10.dtd">
<svg version="1.0" xmlns="http://www.w3.org/2000/svg"
 width="1000.000000pt" height="1053.000000pt" viewBox="0 0 1000.000000 1053.000000"
 preserveAspectRatio="xMidYMid meet">
<metadata>
Created by potrace 1.11, written by Peter Selinger 2001-2013
</metadata>
<g transform="translate(0.000000,1053.000000) scale(0.100000,-0.100000)"
fill="#ffffff" stroke="none">
<path d="M5020 9788 c-86 -24 -120 -93 -145 -303 -5 -42 -19 -109 -39 -185
-18 -65 -76 -210 -113 -281 -83 -159 -195 -286 -339 -386 -40 -27 -173 -94
-246 -123 -51 -20 -81 -50 -65 -67 9 -9 42 -10 52 -2 6 4 58 28 115 52 163 70
333 156 362 185 6 6 16 12 20 12 11 0 197 120 257 166 175 134 318 328 365
494 56 202 26 374 -74 422 -46 21 -106 28 -150 16z"/>
<path d="M5777 9769 c-48 -11 -87 -31 -110 -57 -21 -23 -63 -141 -72 -204 -59
-408 -228 -688 -568 -941 -127 -95 -406 -257 -443 -257 -6 0 -19 -9 -30 -21
-16 -17 -16 -22 -4 -29 21 -14 47 -12 83 4 18 8 88 38 157 67 143 60 369 174
486 244 498 302 749 621 731 930 -11 189 -102 293 -230 264z"/>
<path d="M6208 8575 c-3 -2 -90 -13 -173 -20 -162 -15 -434 -96 -574 -171
-287 -154 -458 -375 -542 -702 l-23 -90 -136 138 c-307 313 -599 491 -1015
620 -58 17 -152 40 -250 59 -95 18 -130 24 -242 36 -27 3 -64 8 -83 11 -43 6
-386 6 -420 0 -14 -2 -52 -7 -85 -11 -32 -4 -66 -8 -75 -10 -8 -2 -55 -10
-105 -19 -133 -25 -268 -62 -375 -103 -97 -37 -233 -104 -261 -129 -8 -8 -19
-14 -23 -14 -15 0 -144 -104 -214 -172 -194 -189 -340 -461 -421 -784 -44
-178 -56 -276 -56 -474 0 -129 9 -258 20 -300 2 -8 6 -26 9 -40 8 -50 47 -196
58 -220 6 -14 14 -34 18 -45 95 -243 309 -487 555 -631 27 -16 59 -34 70 -41
11 -6 36 -20 55 -29 19 -10 75 -42 124 -71 49 -29 92 -53 97 -53 5 0 9 -4 9
-8 0 -5 19 -19 42 -32 61 -34 163 -141 189 -196 24 -54 31 -140 15 -194 -14
-50 -71 -135 -120 -176 -89 -77 -263 -159 -431 -204 -101 -27 -93 -25 -216
-45 -111 -19 -140 -34 -133 -68 4 -23 30 -47 50 -47 10 0 208 34 259 44 150
31 338 97 493 174 88 45 228 126 242 142 3 3 23 17 45 32 188 124 426 387 527
583 106 205 141 346 142 570 1 216 -13 303 -72 444 -130 308 -421 523 -1067
789 -88 37 -246 121 -308 166 -149 106 -209 223 -185 357 41 227 281 467 578
579 53 20 189 57 240 66 14 3 50 9 80 14 227 39 452 -18 660 -169 115 -83 257
-232 309 -324 46 -81 96 -214 107 -282 3 -22 8 -43 9 -46 2 -3 7 -34 10 -70 3
-35 10 -99 14 -142 7 -80 6 -853 -3 -1742 -3 -275 -8 -904 -12 -1397 l-6 -898
50 5 c68 7 201 55 323 117 100 50 328 197 404 260 201 168 349 326 465 498 24
36 51 76 60 90 9 14 38 68 64 120 69 139 72 174 70 644 l-2 399 177 -7 c97 -4
190 -9 206 -11 17 -1 64 -6 105 -9 90 -8 155 -14 195 -21 17 -2 50 -7 75 -10
25 -3 56 -7 70 -10 14 -3 50 -9 80 -15 30 -6 65 -12 77 -14 92 -18 315 -85
411 -122 496 -196 781 -500 947 -1010 39 -118 87 -319 99 -414 2 -19 7 -57 11
-85 3 -27 8 -59 10 -70 6 -29 18 -267 18 -350 0 -87 -12 -325 -18 -345 -2 -8
-6 -42 -10 -75 -34 -328 -147 -707 -287 -965 -77 -143 -170 -274 -278 -394
-178 -198 -316 -300 -540 -399 -89 -40 -266 -83 -384 -94 -92 -9 -290 -9 -341
0 -196 35 -440 181 -641 381 -133 134 -241 288 -479 681 -203 336 -309 490
-439 640 -268 306 -568 483 -931 549 -16 3 -41 8 -55 11 -121 25 -537 25 -665
1 -11 -2 -42 -7 -70 -10 -157 -21 -417 -96 -563 -162 -169 -78 -320 -166 -447
-263 -390 -298 -587 -638 -631 -1086 -5 -52 -3 -62 14 -78 15 -14 29 -17 52
-12 38 8 45 26 53 125 4 41 9 86 12 100 3 14 7 36 10 49 36 184 190 404 348
499 102 62 188 85 317 88 98 2 127 -1 200 -22 162 -48 304 -138 573 -363 79
-67 438 -343 502 -387 16 -11 80 -54 140 -95 162 -111 371 -233 530 -310 293
-142 768 -318 1035 -385 120 -29 120 -30 225 -53 50 -11 108 -22 130 -25 22
-4 47 -8 55 -11 8 -2 38 -6 65 -10 28 -3 61 -7 75 -10 22 -3 81 -10 175 -20
202 -22 645 -22 830 0 16 2 59 6 95 10 120 12 132 13 310 41 137 21 171 27
320 59 14 3 94 22 130 30 344 82 768 250 1029 408 52 31 98 57 103 57 4 0 8 5
8 10 0 6 5 10 10 10 14 0 177 118 275 200 482 403 785 940 870 1547 3 23 8 57
11 75 10 58 12 451 4 523 -5 39 -11 93 -14 120 -24 203 -102 487 -191 696 -75
175 -229 437 -317 541 -13 15 -34 41 -46 57 -32 41 -137 148 -192 195 -135
116 -420 273 -647 355 -132 48 -328 108 -398 123 -27 5 -70 14 -95 20 -25 6
-85 18 -135 27 l-90 17 215 53 c118 29 222 55 230 57 8 1 52 12 97 23 45 11
92 22 105 25 13 2 55 12 93 21 39 9 81 18 95 21 14 2 43 8 65 14 35 8 78 17
176 35 13 3 35 7 49 10 14 3 52 10 85 15 33 6 74 12 90 15 78 13 93 15 135 21
25 3 56 8 70 10 14 2 65 7 114 11 126 8 140 13 144 49 5 58 2 59 -225 60 -183
0 -217 3 -288 23 -197 55 -324 163 -413 351 -29 63 -66 175 -76 235 -24 143
-31 194 -41 320 -11 131 -54 349 -86 440 -21 58 -26 71 -58 140 -88 188 -255
373 -471 519 -235 160 -448 218 -812 222 -114 1 -208 0 -210 -1z m-374 -369
c93 -32 139 -60 203 -125 71 -72 107 -144 163 -326 5 -16 16 -68 25 -115 19
-105 26 -149 45 -305 6 -49 13 -97 15 -105 2 -8 7 -42 10 -75 13 -126 69 -335
115 -426 55 -109 164 -232 275 -311 129 -92 385 -189 568 -213 18 -3 43 -7 57
-10 54 -11 330 -40 430 -45 19 -1 -244 -72 -345 -94 -11 -2 -40 -9 -65 -16
-25 -7 -56 -14 -69 -17 -20 -3 -110 -24 -161 -38 -30 -7 -325 -77 -345 -81
-11 -2 -65 -15 -120 -28 -55 -14 -113 -28 -130 -31 -16 -3 -34 -7 -40 -9 -33
-10 -243 -59 -304 -72 -12 -3 -53 -12 -90 -20 -36 -9 -74 -18 -83 -20 -10 -2
-26 -6 -35 -8 -10 -3 -70 -17 -133 -31 -63 -15 -162 -38 -220 -51 -58 -14
-132 -31 -165 -38 -33 -8 -131 -31 -218 -51 -87 -20 -161 -34 -164 -31 -4 3
-6 405 -7 893 0 786 5 1064 19 1168 2 17 6 48 9 70 28 225 123 411 257 502
131 89 341 113 503 59z"/>
</g>
</svg>
